<?xml version="1.0" encoding="iso-8859-1"?>
<!-- Generator: Adobe Illustrator 19.0.0, SVG Export Plug-In . SVG Version: 6.00 Build 0)  -->
<svg version="1.1" id="Capa_1" xmlns="http://www.w3.org/2000/svg" xmlns:xlink="http://www.w3.org/1999/xlink" x="0px" y="0px"
	 viewBox="0 0 512 512" style="enable-background:new 0 0 512 512;" xml:space="preserve">
<rect x="194.189" y="193.602" style="fill:#FF9570;" width="61.811" height="309.054"/>
<rect x="256" y="193.602" style="fill:#FF7240;" width="61.811" height="309.054"/>
<rect x="232.821" y="193.602" style="fill:#FFB9A0;" width="46.358" height="309.054"/>
<path style="fill:#FF7240;" d="M445.033,115.458c-0.137-0.246-0.268-0.494-0.407-0.74c8.47-23.801,0.999-51.307-20.279-67.25
	c-15.151-11.352-33.964-14.345-50.932-9.785l29.386,195.138h30.905c32.714,0,59.235-26.521,59.235-59.237
	C492.942,144.745,472.325,120.747,445.033,115.458z"/>
<path style="fill:#FEA228;" d="M462.036,173.584c0-28.839-20.617-52.837-47.909-58.126c-0.137-0.246-0.268-0.494-0.407-0.74
	c8.47-23.801,0.999-51.307-20.279-67.25c-6.189-4.637-12.991-7.881-20.027-9.785c-4.536,1.219-8.942,2.972-13.109,5.256
	c-0.234-0.103-0.468-0.205-0.703-0.307C353.503,21.79,336.127,5.094,313.3,0.956c-21.969-3.974-43.296,4.719-56.484,20.865
	c-0.273-0.001-0.543-0.008-0.816-0.008c-0.279,0-0.556,0.007-0.835,0.008C241.977,5.676,220.639-3.017,198.671,0.967
	c-22.816,4.137-40.191,20.843-46.293,41.675c-0.235,0.103-0.47,0.205-0.705,0.308c-19.755-10.829-44.841-9.857-64.04,4.539
	C72.114,59.128,63.92,76.919,63.92,94.937c0,6.676,1.14,13.381,3.435,19.817c-0.132,0.234-0.258,0.47-0.387,0.705
	c-27.292,5.289-47.909,29.287-47.909,58.126c0,32.716,26.521,59.237,59.235,59.237h324.507
	C435.515,232.821,462.036,206.3,462.036,173.584z"/>
<path style="fill:#E52C20;" d="M410.527,465.642L425.98,512h30.905C456.885,486.397,436.13,465.642,410.527,465.642z"/>
<path style="fill:#F25031;" d="M410.527,465.642c-16.129,0-30.328,8.24-38.632,20.737c-8.304-12.496-22.503-20.737-38.632-20.737
	c-16.129,0-30.328,8.24-38.632,20.737c-8.304-12.496-22.503-20.737-38.632-20.737s-30.327,8.24-38.632,20.737
	c-8.304-12.496-22.503-20.737-38.632-20.737s-30.327,8.24-38.632,20.737c-8.304-12.496-22.503-20.737-38.632-20.737
	c-25.603,0-46.358,20.755-46.358,46.358H425.98C425.98,486.397,419.061,465.642,410.527,465.642z"/>
<path style="fill:#FFB9A0;" d="M411.214,294.632l-20.604,30.905l20.604,30.905c17.068,0,30.905-13.836,30.905-30.905
	C442.12,308.469,428.283,294.632,411.214,294.632z"/>
<path style="fill:#FFDCCF;" d="M385.116,308.992c-5.482-8.629-15.118-14.36-26.098-14.36c-10.752,0-20.218,5.494-25.755,13.824
	c-5.536-8.331-15.003-13.824-25.755-13.824s-20.218,5.494-25.755,13.824c-5.536-8.331-15.003-13.824-25.755-13.824
	c-10.752,0-20.218,5.494-25.755,13.824c-5.536-8.331-15.003-13.824-25.755-13.824s-20.218,5.494-25.755,13.824
	c-5.536-8.331-15.003-13.824-25.755-13.824c-10.981,0-20.616,5.731-26.098,14.36c-5.483-8.629-15.118-14.36-26.099-14.36
	c-17.069,0-30.905,13.836-30.905,30.905c0,17.069,13.836,30.905,30.905,30.905c10.981,0,20.616-5.731,26.098-14.36
	c5.483,8.629,15.119,14.36,26.099,14.36c10.752,0,20.218-5.494,25.755-13.824c5.536,8.331,15.003,13.824,25.755,13.824
	s20.218-5.494,25.755-13.824c5.536,8.331,15.003,13.824,25.755,13.824c10.752,0,20.218-5.494,25.755-13.824
	c5.536,8.331,15.003,13.824,25.755,13.824s20.218-5.494,25.755-13.824c5.536,8.331,15.003,13.824,25.755,13.824
	c10.98,0,20.616-5.731,26.098-14.36c5.483,8.629,15.118,14.36,26.098,14.36v-61.811
	C400.234,294.632,390.598,300.363,385.116,308.992z"/>
<g>
</g>
<g>
</g>
<g>
</g>
<g>
</g>
<g>
</g>
<g>
</g>
<g>
</g>
<g>
</g>
<g>
</g>
<g>
</g>
<g>
</g>
<g>
</g>
<g>
</g>
<g>
</g>
<g>
</g>
</svg>
