<?xml version="1.0" encoding="iso-8859-1"?>
<!-- Generator: Adobe Illustrator 18.1.1, SVG Export Plug-In . SVG Version: 6.00 Build 0)  -->
<svg xmlns="http://www.w3.org/2000/svg" xmlns:xlink="http://www.w3.org/1999/xlink" version="1.1" id="Capa_1" x="0px" y="0px" viewBox="0 0 17.014 17.014" style="enable-background:new 0 0 17.014 17.014;" xml:space="preserve" width="512px" height="512px">
<g>
	<g>
		<path d="M16.912,0.091c-0.696-0.698-5.25,2.831-5.433,3.014l-1.67,1.668L8.703,4.277    c-0.109-0.049-0.236-0.025-0.32,0.059L7.008,5.711C6.94,5.778,6.91,5.873,6.928,5.965s0.078,0.171,0.166,0.209l0.908,0.408    L4.747,9.837L2.764,8.949c-0.109-0.048-0.235-0.025-0.32,0.058l-2.349,2.35c-0.067,0.067-0.096,0.161-0.079,0.254    s0.079,0.171,0.165,0.21l2.238,1.004c0.109,0.048,0.235,0.025,0.32-0.06l0.104-0.104c0.112-0.113,0.295-0.112,0.407,0l1.081,1.08    c0.113,0.112,0.111,0.294-0.001,0.406l-0.092,0.092c-0.082,0.083-0.107,0.212-0.057,0.32l1.023,2.286    c0.015,0.031,0.034,0.062,0.059,0.086c0.041,0.042,0.094,0.067,0.152,0.078c0.093,0.018,0.188-0.012,0.254-0.076l2.35-2.351    c0.082-0.084,0.106-0.211,0.058-0.32l-0.901-2.014l3.255-3.254l0.421,0.938c0.039,0.085,0.118,0.147,0.21,0.164    c0.093,0.018,0.188-0.013,0.254-0.079l1.376-1.376c0.084-0.084,0.108-0.21,0.059-0.32l-0.51-1.137l1.66-1.66    C14.082,5.343,17.61,0.789,16.912,0.091z M11.695,6.92c-0.085,0.084-0.108,0.211-0.061,0.319l0.512,1.139l-0.941,0.941    L10.782,8.38c-0.039-0.085-0.117-0.147-0.211-0.165c-0.091-0.017-0.187,0.014-0.252,0.081L6.62,11.994    c-1.571-0.237-1.608-1.611-1.608-1.611l3.689-3.688C8.767,6.628,8.797,6.532,8.78,6.44C8.761,6.347,8.701,6.269,8.614,6.231    L7.705,5.823l0.941-0.941l1.107,0.496c0.108,0.048,0.237,0.025,0.321-0.059l1.37-1.371c0.06,0.269,0.235,0.64,0.474,0.922    c0.036,0.042,0.071,0.082,0.11,0.121c0.287,0.288,0.608,0.418,1.076,0.518L11.695,6.92z" fill="#4d4d4d"/>
		<path d="M1.128,15.814c1.246-0.343,0.361-1.335,0.566-1.735c0.254-0.515,0.535-0.503,1.295-0.615    c-0.354-0.162-0.76-0.206-1.175-0.142c-0.412,0.072-0.833,0.3-1.122,0.655c-0.299,0.349-0.438,0.784-0.524,1.194    c-0.062,0.42-0.064,0.827-0.023,1.225l0.044,0.423l0.396,0.019c0.446,0.022,0.814-0.018,1.208-0.142    c0.379-0.125,0.755-0.319,1.047-0.609c0.608-0.58,0.787-1.424,0.65-2.123C3.221,14.637,3.079,15.836,1.128,15.814z" fill="#4d4d4d"/>
	</g>
</g>
<g>
</g>
<g>
</g>
<g>
</g>
<g>
</g>
<g>
</g>
<g>
</g>
<g>
</g>
<g>
</g>
<g>
</g>
<g>
</g>
<g>
</g>
<g>
</g>
<g>
</g>
<g>
</g>
<g>
</g>
</svg>
