<?xml version="1.0" encoding="iso-8859-1"?>
<!-- Generator: Adobe Illustrator 18.1.1, SVG Export Plug-In . SVG Version: 6.00 Build 0)  -->
<svg version="1.1" id="Capa_1" xmlns="http://www.w3.org/2000/svg" xmlns:xlink="http://www.w3.org/1999/xlink" x="0px" y="0px"
	 viewBox="0 0 87.016 87.016" style="enable-background:new 0 0 87.016 87.016;" xml:space="preserve">
<g>
	<g>
		<path style="fill:#010002;" d="M40.004,0H11.85v25.514h28.155V0z M21.799,17.143h-6.152v-6.156h6.152V17.143z M36.211,17.143
			h-6.159v-6.156h6.159V17.143z"/>
		<path style="fill:#010002;" d="M28.613,72.708h4.964c1.41,0,2.545-1.149,2.545-2.548v-1.804c0-0.129-0.057-0.247-0.075-0.372
			H15.815c-0.025,0.125-0.075,0.24-0.075,0.372v1.804c0,1.399,1.142,2.548,2.548,2.548h5.157c0.154,1.367,0.748,4.212,3.124,7.09
			c3.951,4.781,10.722,7.219,20.145,7.219v-5.1C31.723,81.916,29.089,75.099,28.613,72.708z"/>
		<path style="fill:#010002;" d="M38.401,65.801c-0.816-2.412-1.36-4.957-1.36-7.644c0-7.859,3.829-14.781,9.666-19.186v-9.405
			c0-0.472-0.072-0.855-0.147-1.206c-0.208,0.598-1.006,1.016-2.384,1.016H7.763c-1.5,0-2.369-0.48-2.455-1.174
			c-0.097,0.383-0.168,0.827-0.168,1.364v28.112c0,4.47,3.747,8.124,8.317,8.124H38.39C38.39,65.801,38.401,65.801,38.401,65.801z
			 M31.741,40.931c-0.319-0.007-0.641,0-0.97,0c-0.007,0.029-0.007,0.043-0.007,0.072c0,0.719,0,1.435,0,2.162
			c0.007,0.684-0.258,1.274-0.712,1.775c-0.279,0.301-0.594,0.576-0.888,0.848c-0.791,0.755-1.578,1.496-2.376,2.258
			c-0.218,0.204-0.322,0.469-0.358,0.755c-0.007,0.075-0.021,0.161-0.021,0.229c0,1.718,0,3.436,0,5.15
			c0,0.075,0.021,0.089,0.093,0.111c0.97,0.233,1.696,1.041,1.825,2.044c0.179,1.274-0.701,2.484-1.983,2.702
			c-1.31,0.218-2.527-0.623-2.792-1.918c-0.254-1.267,0.551-2.534,1.807-2.82c0.075-0.029,0.086-0.054,0.086-0.132
			c-0.007-0.512-0.007-1.013-0.007-1.525c0-0.351-0.111-0.651-0.326-0.931c-0.021-0.018-0.021-0.036-0.057-0.05
			c-1.049-1.002-2.119-1.993-3.16-3.013c-0.512-0.501-0.805-1.131-0.805-1.879c0-0.741,0-1.482,0-2.233
			c0-0.054-0.014-0.082-0.075-0.104c-0.605-0.24-0.966-0.859-0.895-1.492c0.082-0.676,0.594-1.195,1.267-1.281
			c0.88-0.118,1.689,0.605,1.628,1.507c-0.029,0.605-0.344,1.027-0.909,1.274c-0.05,0.014-0.068,0.047-0.068,0.089
			c0,0.777,0,1.564,0.011,2.337c0.007,0.397,0.154,0.741,0.44,1.013c0.966,0.909,1.922,1.825,2.888,2.727
			c0.021,0.014,0.036,0.036,0.061,0.075c0-4.957,0-9.899,0-14.831c-0.379,0-0.78,0-1.195,0c0.562-0.981,1.117-1.94,1.686-2.906
			c0.573,0.97,1.117,1.925,1.689,2.902c-0.419,0-0.809,0-1.195,0c0,3.729-0.014,7.455,0,11.187c0.014-0.007,0.029-0.021,0.043-0.029
			c0.991-0.941,1.986-1.865,2.963-2.813c0.204-0.197,0.308-0.455,0.361-0.734c0.018-0.075,0.018-0.154,0.018-0.222
			c0-0.752,0-1.492,0-2.251c0-0.014,0-0.032,0-0.061c-0.329,0-0.644,0-0.966,0c0-0.973,0-1.936,0-2.902c0.966,0,1.922,0,2.899,0
			C31.741,38.995,31.741,39.958,31.741,40.931z"/>
		<path style="fill:#010002;" d="M61.173,37.46c-11.431,0-20.704,9.262-20.704,20.696s9.273,20.711,20.704,20.711
			c11.434,0,20.704-9.28,20.704-20.711S72.608,37.46,61.173,37.46z M60.411,73.173L44.027,59.516l5.311-6.374l9.491,7.906
			l12.723-17.901l6.768,4.799L60.411,73.173z"/>
	</g>
</g>
<g>
</g>
<g>
</g>
<g>
</g>
<g>
</g>
<g>
</g>
<g>
</g>
<g>
</g>
<g>
</g>
<g>
</g>
<g>
</g>
<g>
</g>
<g>
</g>
<g>
</g>
<g>
</g>
<g>
</g>
</svg>
